<?xml version="1.0" standalone="no"?>
<!DOCTYPE svg PUBLIC "-//W3C//DTD SVG 20010904//EN"
 "http://www.w3.org/TR/2001/REC-SVG-20010904/DTD/svg10.dtd">
<svg version="1.0" xmlns="http://www.w3.org/2000/svg"
 width="1280.000000pt" height="853.000000pt" viewBox="0 0 1280.000000 853.000000"
 preserveAspectRatio="xMidYMid meet">
<metadata>
Created by potrace 1.15, written by Peter Selinger 2001-2017
</metadata>
<g transform="translate(0.000000,853.000000) scale(0.100000,-0.100000)"
fill="#000000" stroke="none">
<path d="M3280 7630 c-25 -22 -50 -40 -57 -40 -6 0 -13 -4 -15 -9 -1 -5 -34
-30 -72 -56 -48 -32 -72 -43 -79 -36 -8 8 -16 6 -29 -6 -10 -9 -18 -13 -18 -9
0 4 -13 -2 -29 -13 -16 -12 -32 -21 -36 -21 -5 0 48 73 65 90 8 7 30 60 26 60
-2 0 -15 -19 -29 -42 -14 -24 -48 -68 -76 -98 l-51 -55 25 58 c31 70 24 75
-10 7 -14 -28 -29 -49 -34 -46 -4 3 -18 -12 -30 -34 -12 -22 -27 -43 -34 -47
-7 -4 -6 1 2 13 8 10 -23 -17 -68 -61 -46 -44 -81 -74 -77 -67 4 6 5 12 2 12
-2 0 -19 -26 -37 -57 -18 -32 -43 -73 -56 -91 -24 -33 -67 -142 -59 -150 3 -2
12 11 20 29 8 19 15 28 15 21 1 -16 -30 -72 -40 -72 -3 0 -4 -11 -1 -25 l4
-26 -38 22 c-65 37 -121 87 -169 150 -26 32 -52 59 -60 59 -26 0 -39 -71 -26
-142 6 -36 11 -80 11 -99 1 -52 32 -110 94 -173 31 -32 56 -67 56 -78 0 -21
-41 -79 -99 -138 -19 -19 -52 -60 -75 -90 -23 -31 -59 -75 -81 -99 l-40 -43 0
-92 0 -91 -47 -70 c-92 -135 -190 -246 -268 -300 -62 -43 -86 -69 -138 -145
-62 -93 -62 -94 -68 -179 -5 -75 -3 -91 15 -126 12 -21 21 -50 21 -63 0 -13
11 -40 25 -60 14 -20 25 -43 25 -51 0 -8 31 -44 69 -81 l69 -68 89 -8 c184
-16 218 -1 250 111 6 23 21 36 63 57 65 32 307 113 367 123 23 3 72 25 109 47
37 22 90 51 118 63 54 24 154 40 171 28 14 -10 121 -144 166 -208 20 -27 53
-86 73 -130 21 -44 62 -129 91 -190 126 -262 137 -289 183 -460 26 -96 27
-109 25 -320 -2 -252 13 -398 51 -479 34 -73 111 -178 205 -278 44 -47 81 -89
81 -92 0 -4 -48 -30 -107 -58 -110 -52 -182 -109 -210 -162 -27 -53 -63 -207
-63 -272 0 -60 2 -64 49 -120 27 -31 55 -75 62 -97 13 -40 13 -41 -55 -173
-54 -103 -70 -144 -74 -186 -3 -41 0 -57 12 -67 9 -7 16 -17 16 -21 0 -12 121
-218 134 -229 11 -9 104 -49 316 -136 181 -75 258 -115 312 -161 116 -99 156
-98 273 10 27 25 54 46 59 46 6 0 24 13 41 28 16 16 50 37 75 47 68 29 92 48
141 115 38 52 55 66 116 95 58 27 76 41 89 68 42 88 -22 159 -189 209 -106 31
-173 35 -206 11 -14 -11 -43 -25 -63 -32 -20 -7 -42 -19 -49 -27 -36 -44 -111
-51 -153 -15 -25 22 -172 26 -229 6 -54 -19 -57 -19 -57 5 0 11 -7 20 -15 20
-32 0 -77 32 -91 65 -24 59 -10 76 212 245 170 130 287 227 383 318 l87 82
133 0 c112 0 138 3 171 20 21 11 41 24 45 29 3 6 72 8 178 5 171 -6 439 13
547 37 25 6 79 17 120 24 189 35 325 67 439 105 145 47 177 50 187 18 3 -13
59 -109 122 -215 81 -134 139 -217 191 -275 121 -132 180 -241 200 -365 8 -52
7 -62 -14 -98 -23 -40 -193 -213 -311 -316 -237 -209 -240 -212 -273 -337 -10
-37 -35 -121 -56 -187 -54 -173 -56 -184 -39 -216 9 -19 14 -61 14 -133 0
-114 4 -136 28 -136 8 0 56 26 106 59 50 32 102 64 116 71 14 7 57 37 96 66
66 49 73 58 84 105 7 28 10 76 7 106 -6 53 -5 55 23 65 23 7 34 22 50 64 11
30 20 61 20 68 0 17 115 171 176 238 86 92 261 244 271 234 24 -24 -83 -305
-153 -403 -60 -84 -118 -173 -139 -213 -9 -17 -41 -61 -73 -98 -117 -138 -138
-168 -150 -209 -9 -31 -26 -54 -65 -85 -28 -24 -89 -79 -134 -124 -66 -63 -83
-86 -83 -109 0 -22 -15 -42 -64 -90 -63 -60 -88 -107 -68 -127 13 -13 73 -26
202 -44 58 -8 143 -19 189 -26 l84 -11 26 30 c14 16 38 35 53 41 38 16 47 70
23 131 -10 25 -20 65 -23 89 l-4 43 73 -3 73 -3 23 34 c13 19 32 62 42 95 26
84 127 287 181 366 25 36 70 108 101 160 83 142 128 210 194 299 33 44 70 95
82 113 13 18 47 70 78 116 30 45 62 82 69 82 8 0 25 14 37 31 21 30 22 42 24
243 2 178 6 225 24 301 36 145 63 228 94 280 6 11 36 67 67 125 50 94 200 334
249 400 24 31 160 241 213 329 23 36 51 79 65 94 13 16 54 90 91 164 l67 135
-1 132 c-1 152 -33 322 -82 446 -17 41 -28 78 -26 82 23 36 121 -47 191 -161
37 -62 47 -87 50 -136 5 -54 0 -74 -47 -200 -29 -77 -65 -174 -80 -215 -15
-41 -30 -100 -33 -130 -6 -51 -5 -52 4 -15 18 74 41 147 44 143 2 -2 -4 -32
-12 -68 -9 -36 -16 -101 -17 -145 -1 -68 3 -87 26 -130 17 -33 25 -61 22 -80
-4 -29 -4 -29 6 -6 6 13 12 22 15 20 6 -7 -13 -81 -23 -88 -9 -6 -24 -41 -18
-41 3 0 14 16 26 36 31 48 36 36 12 -28 -18 -50 -29 -161 -24 -260 2 -43 22
-53 22 -11 0 15 4 23 8 18 11 -13 45 -291 42 -346 -4 -66 -1 -87 9 -71 5 9 10
-6 14 -40 6 -58 38 -153 62 -184 15 -17 15 -16 1 11 -8 17 -21 57 -29 88 -14
53 -14 57 1 45 9 -7 13 -8 10 -3 -23 41 -39 86 -35 97 3 7 6 3 6 -9 1 -13 5
-23 10 -23 5 0 12 -11 15 -25 4 -16 11 -23 18 -19 8 5 9 2 5 -9 -3 -9 -2 -16
2 -14 5 1 24 -18 42 -43 25 -35 35 -63 46 -125 7 -44 19 -100 27 -125 11 -33
14 -36 10 -12 -36 212 -34 229 9 107 70 -199 94 -259 143 -366 30 -63 54 -121
54 -127 0 -7 5 -12 11 -12 5 0 17 -16 25 -35 8 -19 18 -35 23 -35 11 0 30 -46
35 -85 6 -41 16 -65 28 -65 6 0 7 -7 4 -16 -3 -8 -2 -13 3 -10 12 8 33 -19 23
-29 -4 -5 -2 -5 4 -2 7 4 13 -4 16 -23 3 -17 1 -30 -4 -30 -11 0 1 -44 13 -48
5 -2 9 -10 9 -17 0 -7 9 -23 20 -36 20 -23 20 -22 -1 21 -21 43 -34 160 -18
160 11 0 39 -48 39 -67 0 -15 2 -16 10 -3 7 12 12 9 22 -16 7 -17 18 -29 25
-27 14 5 47 -41 41 -57 -2 -7 -26 8 -53 32 -30 27 -46 35 -40 23 5 -11 10 -42
11 -70 1 -27 5 -66 8 -85 5 -28 5 -31 -3 -12 -6 12 -13 22 -16 22 -4 0 -3 -6
2 -12 4 -7 11 -51 15 -98 11 -128 19 -180 27 -180 4 0 4 28 0 63 -4 34 -8 105
-8 156 0 52 -3 115 -7 139 -5 37 -4 43 7 37 33 -19 59 -50 59 -72 0 -13 5 -23
11 -23 6 0 8 9 4 21 -6 16 -4 20 6 13 12 -7 12 -5 1 9 -8 9 -12 21 -10 27 2 7
24 -11 50 -39 25 -27 43 -53 39 -57 -3 -4 0 -4 7 0 8 5 25 -5 46 -28 19 -19
37 -32 40 -29 3 4 -6 19 -21 35 -15 15 -22 28 -16 28 13 0 44 -35 47 -53 2
-16 66 -86 66 -73 0 7 120 -80 130 -95 3 -4 19 -12 35 -18 25 -9 27 -8 11 2
-20 13 -52 37 -140 105 -30 23 -66 58 -80 78 -13 20 -40 47 -60 60 -20 14 -36
29 -36 34 0 5 -10 18 -21 29 -23 21 -44 54 -55 83 -3 10 -13 18 -20 18 -18 0
-18 -5 0 -27 76 -93 96 -119 96 -127 0 -5 -27 17 -60 50 -54 53 -60 63 -60 99
0 22 -2 64 -4 93 -7 80 16 68 52 -28 21 -54 31 -57 12 -3 -9 26 -9 27 5 8 8
-10 23 -43 32 -72 9 -29 21 -53 26 -53 4 0 6 -8 3 -17 -3 -10 -1 -25 4 -33 5
-8 10 -11 10 -6 0 5 7 2 17 -5 15 -13 15 -12 3 8 -8 12 -17 20 -21 17 -4 -2
-7 6 -7 19 1 12 -9 48 -21 81 -40 107 -25 101 135 -54 114 -111 169 -157 234
-194 262 -150 242 -135 277 -206 18 -36 42 -87 52 -115 11 -27 20 -44 20 -37
1 7 -13 49 -30 93 -17 44 -29 82 -26 85 2 3 17 -10 32 -28 15 -18 29 -31 31
-28 1 3 15 -6 31 -20 15 -14 -2 7 -39 47 -38 39 -68 74 -68 77 0 3 12 1 26 -4
15 -6 47 -15 73 -21 29 -6 54 -19 69 -37 22 -24 23 -25 12 -3 -12 23 -12 24
26 16 49 -9 81 -31 174 -119 l75 -71 -83 86 c-53 55 -77 85 -65 84 50 -4 125
-41 193 -95 101 -82 191 -141 290 -192 88 -46 124 -82 179 -178 17 -30 31 -51
31 -46 0 8 -37 73 -93 161 -15 25 -220 230 -229 230 -4 0 -12 5 -19 12 -8 8
17 11 105 12 65 0 126 3 138 7 11 3 23 2 27 -2 3 -5 24 -18 46 -29 57 -29 197
-171 235 -237 36 -66 47 -75 25 -21 -26 62 -120 195 -181 256 -65 64 -62 67
45 42 35 -9 66 -13 69 -11 2 3 -23 10 -57 17 -61 13 -76 24 -43 32 9 2 -10 2
-44 -1 -53 -4 -63 -2 -75 16 -19 26 -218 116 -316 143 -118 31 -210 69 -235
97 l-23 25 49 -8 c67 -9 242 -60 269 -78 12 -8 38 -17 57 -21 19 -3 69 -21
111 -39 45 -20 76 -29 76 -22 0 6 -32 22 -71 35 -58 20 -66 25 -45 30 17 5 9
8 -31 12 -31 3 -83 19 -120 37 l-65 31 45 -6 c25 -4 81 -17 125 -29 44 -13 81
-22 83 -20 6 6 -154 54 -238 71 -72 15 -240 84 -240 98 0 3 33 -10 73 -29 89
-41 200 -70 338 -88 102 -12 109 -15 173 -61 37 -26 66 -50 63 -52 -2 -2 -32
7 -67 21 -73 29 -70 28 -70 15 0 -5 6 -10 14 -10 15 0 141 -49 164 -63 7 -5
10 -13 7 -18 -4 -5 -1 -9 6 -9 7 0 24 -10 37 -22 23 -22 24 -22 20 -3 -1 11
-10 26 -18 33 -16 14 -11 14 38 -5 26 -10 11 2 -27 22 -19 10 -30 12 -26 5 5
-8 3 -11 -6 -8 -8 3 -14 9 -14 14 0 5 -27 35 -60 67 l-60 59 35 -6 c34 -6 127
-63 152 -93 11 -14 9 -14 -19 0 -59 31 -49 17 11 -16 33 -18 62 -38 64 -45 2
-7 -22 -24 -60 -42 -63 -30 -61 -41 2 -18 31 10 35 9 56 -15 13 -15 26 -27 30
-27 4 0 15 -6 24 -13 8 -6 -4 6 -28 28 -41 37 -46 55 -16 55 7 0 27 -12 46
-27 18 -15 27 -20 21 -13 -7 8 -13 17 -13 21 0 6 54 -3 98 -17 7 -2 16 -4 20
-4 4 -1 22 -10 40 -22 17 -11 32 -15 32 -10 0 5 19 8 43 7 23 -1 30 0 15 2
-15 2 -44 23 -67 48 -38 41 -182 136 -206 135 -5 -1 11 -12 38 -26 26 -13 47
-26 47 -29 0 -10 -63 -36 -76 -31 -10 4 -12 2 -8 -5 4 -7 1 -10 -7 -7 -8 3
-13 11 -11 17 1 6 -2 11 -8 11 -10 0 -60 51 -60 61 0 10 102 -30 121 -47 9 -8
19 -11 22 -7 4 3 -10 16 -30 27 -20 12 -35 25 -32 29 2 5 -7 15 -21 23 l-25
15 25 -7 c44 -12 160 -66 160 -75 0 -5 7 -9 15 -9 22 0 96 -51 89 -61 -3 -5 3
-6 13 -2 10 3 15 3 11 -2 -4 -4 12 -21 35 -38 23 -16 67 -52 97 -81 l55 -51
-45 49 c-25 27 -49 54 -55 60 -13 14 -112 88 -149 112 -26 16 -27 19 -10 26
16 7 15 8 -4 4 -14 -3 -60 13 -115 39 -51 24 -120 52 -155 61 -40 11 -67 25
-74 37 -9 17 -8 19 7 13 9 -3 29 -8 43 -11 20 -4 17 0 -13 14 -22 11 -35 20
-29 20 27 2 205 -49 230 -66 17 -11 25 -13 20 -4 -12 19 -58 36 -203 76 -70
19 -134 42 -143 51 -14 15 -10 16 50 11 l65 -6 -76 17 c-70 16 -82 22 -144 79
l-69 62 97 0 c141 0 304 -49 447 -134 41 -25 62 -34 45 -20 -16 14 -79 50
-140 79 l-110 54 73 0 c42 -1 78 -6 85 -13 7 -6 26 -16 44 -22 53 -19 146 -87
208 -154 32 -35 53 -54 47 -42 -7 12 -17 25 -22 28 -6 3 -10 11 -10 17 0 6 12
1 28 -13 l27 -24 -24 27 c-13 15 -27 26 -30 23 -4 -2 -25 12 -46 32 l-40 35
36 -21 c54 -31 54 -26 0 24 -48 45 -80 62 -46 25 26 -29 10 -25 -42 10 -24 17
-48 30 -52 30 -5 0 -14 7 -21 15 -10 12 -8 13 17 6 47 -15 63 -23 63 -33 0 -5
9 -7 19 -3 11 3 36 -3 58 -15 21 -11 43 -20 49 -20 6 0 47 -23 90 -51 132 -87
229 -197 312 -356 18 -34 33 -65 33 -68 0 -4 9 -27 33 -85 3 -8 3 0 0 18 -8
46 -88 206 -139 277 -79 110 -215 225 -330 278 -95 44 -202 80 -235 80 -30 -1
-32 0 -10 6 20 6 15 9 -31 15 -30 4 -75 14 -100 22 l-44 14 72 -3 c50 -3 83
-11 108 -26 20 -11 43 -21 51 -21 8 0 22 -4 32 -9 35 -18 155 -62 158 -58 2 2
-41 23 -96 47 -56 23 -99 44 -97 46 2 2 34 -3 71 -10 64 -14 139 -51 196 -98
21 -17 22 -19 5 -14 -20 6 -20 6 -1 -9 11 -8 27 -15 36 -15 10 0 36 -14 59
-30 38 -28 55 -21 21 8 -12 10 -10 10 13 1 15 -7 25 -14 23 -17 -3 -2 14 -18
36 -36 23 -17 44 -38 46 -46 4 -11 -1 -10 -19 5 -13 11 -6 1 16 -21 41 -42 63
-51 29 -12 -19 21 -19 21 1 14 17 -6 17 -4 -5 21 -13 15 -38 40 -55 55 -16 15
-24 28 -16 28 13 0 151 -139 151 -152 0 -5 5 -8 11 -8 7 0 -8 21 -32 48 -24
26 -55 61 -69 77 -31 36 -104 91 -80 60 15 -19 14 -19 -10 -4 -14 9 -25 23
-25 30 0 8 -6 14 -12 14 -12 0 -18 11 -10 18 4 3 84 -31 155 -66 70 -36 157
-98 157 -112 0 -17 16 -36 25 -30 12 7 71 -68 114 -145 20 -36 36 -61 36 -56
0 4 -14 34 -30 65 -70 131 -190 240 -356 324 -27 14 -65 40 -84 57 -58 55
-197 112 -300 124 -124 15 -244 49 -298 85 -37 24 -49 37 -40 43 9 5 4 8 -14
8 -32 0 -79 20 -73 30 3 4 -9 10 -26 14 -27 5 -30 8 -19 21 11 13 10 14 -2 10
-8 -3 -28 2 -44 10 l-29 17 50 -5 c28 -2 79 -18 115 -34 36 -17 69 -28 74 -25
5 2 -4 11 -20 19 l-29 13 35 -5 c50 -7 140 -34 173 -51 16 -8 37 -14 46 -14
10 0 67 -25 126 -55 59 -31 103 -49 96 -41 -17 20 144 -16 168 -38 10 -9 21
-16 26 -16 5 0 0 7 -11 15 -19 14 -19 14 1 16 12 0 6 5 -15 11 -19 5 -48 22
-65 36 -16 15 -23 19 -16 9 8 -9 11 -20 8 -23 -10 -11 -66 7 -104 33 -21 14
-31 18 -23 9 12 -16 11 -17 -16 -10 -38 9 -101 41 -144 73 -19 14 -29 18 -21
8 16 -20 3 -22 -22 -2 -11 7 -26 11 -35 8 -10 -4 -13 -2 -8 5 3 6 1 14 -5 18
-8 4 -9 3 -5 -4 4 -7 4 -12 1 -12 -9 0 -203 48 -250 62 -22 7 -46 12 -52 11
-7 0 -11 3 -8 6 2 4 -23 21 -56 37 -33 15 -62 31 -64 34 -2 3 16 6 39 8 101 6
97 20 -5 17 -58 -2 -112 1 -120 6 -10 6 -4 9 21 10 24 1 28 3 13 6 -13 2 -23
11 -23 20 0 11 6 14 23 8 28 -9 160 -6 167 4 3 4 24 13 48 21 40 12 46 12 87
-8 25 -12 45 -18 45 -14 0 4 -17 15 -38 24 l-37 17 45 -6 c25 -3 56 -10 70
-16 14 -6 31 -11 38 -13 21 -4 54 -37 44 -43 -5 -3 5 -17 22 -31 31 -24 31
-24 11 -1 l-20 24 21 -11 c11 -6 26 -18 33 -26 8 -9 18 -13 23 -10 5 3 1 15
-9 26 -17 19 -17 19 10 14 15 -3 38 -8 51 -11 13 -2 53 -34 89 -70 37 -36 64
-58 60 -48 -3 10 25 -11 63 -47 l70 -65 -71 70 c-39 39 -91 88 -115 110 -41
36 -43 39 -23 43 22 3 65 -30 129 -98 28 -30 31 -19 6 18 -10 15 -23 34 -27
41 -13 23 54 -28 115 -86 30 -29 56 -53 58 -53 6 0 -50 70 -57 70 -3 1 -28 21
-56 46 -44 39 -46 43 -20 34 16 -6 38 -19 47 -27 28 -26 21 -4 -17 48 -19 27
-30 49 -23 49 6 0 -1 14 -17 30 -16 17 -24 30 -18 30 7 0 20 -10 30 -22 10
-13 32 -34 48 -48 25 -21 27 -21 11 -3 -10 13 -15 27 -10 35 4 7 4 10 -1 6
-12 -12 -164 112 -165 134 0 13 125 -24 181 -54 54 -28 122 -91 177 -163 l23
-30 -18 34 c-54 99 -190 193 -322 221 -50 10 -79 25 -130 63 -36 27 -84 59
-108 70 -24 12 -43 24 -43 27 0 3 19 4 43 3 l42 -2 -40 9 c-22 5 -62 12 -89
15 -35 5 -45 9 -35 16 10 6 5 9 -17 9 -16 0 -36 6 -43 13 -9 7 -11 7 -8 1 4
-7 0 -15 -9 -18 -27 -10 -104 -7 -104 5 0 7 18 9 53 5 28 -3 43 -3 32 0 -33
10 -44 27 -13 22 15 -3 25 -2 23 2 -6 10 49 33 81 33 15 -1 22 3 16 9 -5 5
-39 -1 -85 -17 -79 -26 -113 -30 -136 -16 -9 6 4 11 40 16 58 8 101 24 65 25
-11 0 -29 8 -40 17 -20 17 -20 17 -7 0 16 -20 14 -24 -14 -27 -47 -6 -83 12
-115 56 -33 46 -54 62 -26 19 20 -31 20 -35 -1 -35 -14 0 -173 146 -173 160 0
3 19 6 41 7 29 2 46 -3 58 -15 9 -10 12 -12 7 -4 -10 14 7 32 33 32 33 0 207
-96 268 -147 37 -31 58 -45 47 -31 -10 14 -48 48 -83 74 -35 27 -72 57 -82 66
-10 9 -33 25 -51 34 l-33 17 25 9 c30 11 55 1 119 -48 45 -35 45 -35 -8 14
l-53 50 43 10 c25 6 33 10 19 10 -14 0 -36 -3 -50 -7 -19 -6 -44 2 -100 31
-41 21 -80 38 -86 38 -5 0 -15 5 -22 12 -12 12 -21 15 -82 24 -56 8 -49 15 10
10 l55 -5 -27 20 c-43 32 -35 41 32 37 33 -1 60 0 60 5 0 13 -110 7 -147 -8
-20 -8 -38 -13 -41 -11 -2 3 -11 -1 -18 -9 -13 -12 -21 -11 -60 5 -25 11 -55
20 -66 20 -21 0 -52 25 -45 37 3 5 -17 9 -44 10 -52 2 -163 56 -137 66 7 3 -3
6 -22 7 l-35 1 33 17 c30 15 36 15 80 -1 26 -9 67 -17 92 -17 26 0 61 -8 82
-19 19 -11 38 -17 41 -14 3 3 18 -4 34 -14 46 -32 103 -65 103 -60 0 8 -126
87 -139 87 -10 0 -44 16 -80 38 -2 1 -2 5 1 8 4 3 19 -3 35 -13 27 -17 28 -17
13 1 -14 18 -13 19 5 14 11 -3 29 -9 40 -13 l20 -7 -20 14 c-23 17 -68 30 -60
18 7 -12 -83 -4 -118 9 -16 6 -33 9 -38 5 -13 -7 -7 19 6 28 13 10 65 10 65 0
0 -4 9 -13 20 -20 30 -19 22 8 -10 32 -19 14 -20 16 -5 11 11 -4 40 -13 65
-21 25 -7 56 -23 68 -35 13 -11 30 -18 38 -15 8 3 13 2 10 -3 -4 -5 2 -7 13
-4 10 3 22 0 25 -6 4 -6 15 -11 24 -11 47 0 -146 89 -195 90 -12 0 -25 5 -29
11 -5 9 1 10 22 5 24 -6 22 -2 -15 19 -23 14 -51 25 -61 25 -26 0 -34 16 -12
25 21 10 63 6 78 -6 6 -5 40 -12 75 -14 35 -3 80 -7 99 -9 l35 -5 -40 14 c-22
7 -51 11 -65 9 -23 -4 -24 -4 -4 5 12 5 25 15 30 22 4 7 3 10 -4 5 -21 -13
-90 -18 -97 -7 -3 6 1 11 9 11 28 0 17 18 -14 25 -36 8 -48 24 -29 37 10 7 4
8 -18 4 -31 -5 -64 16 -49 31 4 4 11 1 15 -6 7 -10 9 -11 13 -1 4 13 64 17 76
5 4 -3 0 -11 -8 -16 -12 -9 -12 -10 3 -5 10 3 31 -1 48 -9 16 -9 29 -12 29 -8
0 5 -15 15 -33 24 -17 9 -31 22 -29 29 1 6 -2 9 -8 5 -5 -3 -30 6 -56 21 -33
19 -42 29 -32 35 9 6 5 9 -13 9 -28 0 -49 20 -99 93 -17 27 -59 69 -91 94 -33
26 -57 48 -55 51 3 2 -21 18 -52 34 -31 17 -70 42 -88 56 -34 27 -81 41 -68
20 4 -7 3 -8 -5 -4 -9 6 -9 11 0 22 9 11 8 14 -6 14 -17 0 -68 48 -86 83 -8
14 -14 16 -22 8 -14 -14 -47 -14 -67 0 -11 7 -7 9 20 8 19 -1 47 3 63 9 18 8
35 8 53 2 36 -14 41 -12 18 5 -18 15 -17 16 16 11 l35 -6 -40 15 c-22 8 -65
34 -95 56 -48 36 -51 37 -26 10 17 -17 25 -31 20 -31 -15 0 -40 22 -52 45 -7
13 -12 15 -12 6 0 -10 -8 -7 -25 9 -25 23 -37 16 -13 -8 7 -7 8 -12 2 -12 -6
0 -16 12 -22 26 -9 19 -9 24 0 18 8 -5 9 -2 5 10 -4 10 -7 20 -7 22 0 3 -4 3
-9 -1 -6 -3 -15 5 -22 17 -9 19 -9 21 2 11 22 -21 34 -15 14 7 -10 11 -15 23
-12 27 11 10 43 -24 62 -67 10 -22 22 -37 26 -34 5 3 2 15 -6 28 -23 35 -26
63 -7 71 11 4 33 -14 74 -59 54 -59 113 -106 134 -106 5 0 -7 9 -26 21 -67 40
-162 149 -130 149 5 0 10 -4 10 -10 0 -5 8 -10 18 -10 14 0 15 2 2 10 -18 11
-17 11 48 44 28 14 52 29 52 31 0 3 -18 -4 -39 -15 -22 -10 -56 -22 -78 -25
-36 -6 -41 -3 -96 51 -35 36 -53 60 -46 64 6 5 2 9 -11 13 -12 3 -24 15 -27
26 -3 12 -10 21 -15 21 -6 0 -8 6 -5 14 3 8 -1 20 -9 27 -8 7 -33 39 -56 71
-22 32 -45 58 -49 58 -5 0 -8 5 -7 12 2 7 -2 12 -7 13 -6 0 -29 15 -52 33 -22
17 -46 32 -52 32 -6 0 -37 21 -70 48 -59 46 -59 47 -33 53 23 4 20 6 -21 13
-27 4 -69 18 -95 31 -65 32 -120 48 -143 42 -10 -3 -22 -1 -25 4 -3 5 -15 9
-28 9 -12 0 -40 9 -61 19 -22 10 -46 16 -54 13 -10 -4 -12 -1 -6 8 6 9 4 11
-5 5 -7 -4 -15 -3 -19 4 -4 6 -32 15 -62 21 -62 12 -319 15 -394 5 -38 -5 -46
-4 -35 5 11 8 8 9 -15 3 -31 -8 -36 -8 -201 4 l-102 8 -88 81 c-49 45 -118
100 -154 122 -36 23 -78 51 -95 62 -232 160 -266 180 -312 190 -27 6 -88 25
-138 42 -85 29 -96 30 -188 24 -54 -4 -164 -20 -245 -36 -81 -16 -185 -32
-232 -35 -47 -4 -108 -8 -136 -10 -28 -3 -98 -7 -155 -10 -130 -6 -187 -11
-480 -38 -129 -12 -242 -21 -251 -19 -13 3 -47 76 -60 130 -2 8 17 20 47 30
58 20 135 63 155 87 7 9 -10 0 -38 -18 -58 -40 -147 -74 -139 -54 3 7 -6 18
-19 24 -13 6 -22 7 -18 2 13 -22 -25 -6 -40 16 -13 19 -13 25 -3 25 7 0 19 -6
26 -12 11 -10 13 -10 7 0 -5 7 -1 12 11 12 10 0 25 5 33 10 10 6 3 8 -22 3
-36 -5 -41 -2 -37 23 1 10 -23 24 -41 24 -9 0 -7 -5 8 -16 25 -17 29 -34 8
-34 -19 0 -46 38 -39 56 3 8 -1 14 -8 14 -8 0 -29 16 -48 35 -19 19 -28 35
-20 35 10 0 9 3 -3 13 -23 18 -61 77 -54 84 12 12 74 -48 116 -111 24 -36 46
-64 48 -61 2 2 -17 34 -43 70 -44 62 -65 81 -154 138 -19 12 -33 26 -30 31 3
7 -31 26 -51 28 -13 1 -40 20 -40 28 0 5 8 6 18 3 14 -6 15 -4 4 9 -7 9 -21
14 -32 11 -12 -3 -20 0 -20 7 0 7 7 10 15 6 8 -3 15 -2 15 2 0 4 37 13 83 19
72 10 84 9 102 -5 18 -16 19 -16 7 0 -11 14 -7 18 33 33 58 23 53 29 -8 10
-46 -14 -48 -13 -79 13 -21 16 -26 19 -15 6 26 -32 21 -41 -29 -48 -104 -14
-136 -3 -101 33 10 11 9 13 -1 7 -7 -4 -15 -1 -18 8 -3 9 -14 16 -23 16 -33 0
-18 28 17 34 57 9 121 -12 80 -27 -7 -2 1 -4 18 -3 39 1 34 22 -7 31 l-30 7
53 35 c29 19 44 32 33 28 -11 -4 -29 -10 -40 -13 -11 -3 -24 -11 -28 -19 -5
-8 -27 -13 -58 -13 -38 0 -48 3 -43 13 6 9 5 9 -8 0 -11 -10 -23 -10 -47 -2
-17 6 -31 15 -31 21 0 6 7 8 15 4 8 -3 15 0 15 6 0 7 5 6 15 -2 8 -7 15 -10
15 -7 0 3 16 -1 34 -8 19 -8 37 -11 40 -6 6 8 -30 25 -47 22 -22 -4 -137 82
-137 101 0 15 80 8 135 -11 30 -11 55 -17 55 -15 0 12 -81 37 -140 43 l-65 6
-2 45 c-4 87 -26 161 -65 218 -29 42 -29 44 -11 58 17 14 16 14 -5 4 -18 -9
-27 -8 -38 1 -14 11 -13 15 8 32 l23 19 -27 -16 c-27 -16 -30 -15 -79 9 l-50
26 68 36 c72 37 157 99 189 135 10 12 -10 -2 -46 -31 -104 -83 -244 -142 -293
-122 -16 6 -13 11 21 35 22 15 49 37 59 48 10 12 -4 4 -31 -16 -82 -62 -101
-69 -135 -51 -38 19 -46 32 -23 39 9 3 32 19 50 36 18 16 38 30 43 30 6 0 7 5
4 10 -4 7 -11 7 -18 2 -17 -13 -115 -37 -123 -30 -13 13 8 27 57 37 60 13 143
52 184 88 21 18 23 21 5 9 -71 -46 -220 -107 -220 -89 0 4 8 16 17 27 10 12 4
9 -13 -6 -16 -16 -39 -28 -50 -27 -19 0 -19 0 1 14 45 32 58 45 24 26 -41 -23
-54 -26 -43 -10 4 8 0 8 -15 0 -16 -9 -27 -9 -43 0 -33 17 -58 41 -53 50 3 4
-9 11 -27 14 -27 6 -29 9 -14 17 10 6 34 7 54 4 l37 -6 -34 15 c-18 8 -40 15
-48 15 -7 0 -32 10 -55 21 -40 20 -41 22 -21 33 19 10 17 11 -21 12 -34 1 -53
8 -87 37 -24 20 -71 51 -104 67 -53 28 -56 30 -25 26 54 -8 149 -10 157 -3 3
4 -11 7 -33 7 -21 0 -57 3 -79 7 -31 5 -35 8 -20 14 14 5 7 8 -25 9 -25 0 -56
8 -70 16 -23 14 -20 15 50 10 97 -6 49 10 -56 19 -64 5 -85 12 -123 38 -25 17
-47 34 -49 39 -2 4 -12 8 -23 8 -10 0 -19 5 -19 10 0 13 27 13 36 -1 4 -7 20
-8 43 -4 20 4 78 9 129 10 52 2 96 6 100 9 3 3 -39 7 -94 8 -202 3 -202 3
-197 15 3 6 17 14 31 16 15 2 -12 5 -60 6 -93 1 -128 8 -107 22 7 4 23 3 36
-2 25 -9 53 -3 53 13 0 6 -6 5 -15 -2 -10 -9 -15 -9 -15 -1 0 6 -8 11 -17 11
-15 1 -14 4 7 23 14 13 32 32 40 42 14 19 14 19 -2 6 -10 -7 -18 -10 -18 -6 0
4 -14 -5 -31 -19 -30 -26 -69 -35 -69 -17 0 5 10 11 23 13 12 2 -3 5 -33 5
-30 1 -60 -3 -67 -9 -7 -6 -14 -5 -18 2 -3 5 1 10 10 10 9 0 14 4 11 9 -3 5 1
14 10 22 8 7 20 22 26 33 7 15 0 11 -24 -11 -37 -36 -54 -42 -44 -17 5 14 4
15 -9 4 -12 -10 -28 -10 -81 0 -36 7 -95 10 -130 7 l-64 -5 21 29 c11 16 17
29 12 29 -5 0 -17 -13 -26 -30 -14 -22 -31 -33 -78 -46 -33 -9 -62 -21 -65
-25 -7 -11 -1 -11 30 1 14 5 26 6 26 1 0 -5 -12 -12 -27 -16 -20 -5 -31 -2
-40 11 -11 15 -16 13 -15 -6 0 -3 -22 -6 -50 -6 -68 -2 -51 11 64 52 51 18 89
33 83 33 -17 1 -148 -37 -187 -53 -35 -15 -49 -11 -30 8 4 4 7 12 7 18 0 5 27
34 60 63 33 30 58 54 55 54 -3 0 -25 -18 -50 -39z m405 -94 c45 -11 48 -13 30
-23 -22 -12 -75 -6 -75 8 0 5 -33 9 -72 9 -45 0 -68 -4 -59 -9 9 -6 2 -10 -23
-13 -47 -5 -46 5 2 25 44 18 128 20 197 3z m-521 -21 c-10 -8 -26 -14 -34 -15
-8 0 -2 9 15 20 33 22 49 18 19 -5z m434 -12 c-10 -2 -28 -2 -40 0 -13 2 -5 4
17 4 22 1 32 -1 23 -4z m-498 -27 c0 -2 -7 -7 -16 -10 -8 -3 -12 -2 -9 4 6 10
25 14 25 6z m783 -23 c-7 -2 -21 -2 -30 0 -10 3 -4 5 12 5 17 0 24 -2 18 -5z
m-902 -21 c-12 -23 -40 -46 -75 -61 -29 -12 -29 -12 -14 11 12 18 81 67 96 68
1 0 -2 -8 -7 -18z m1054 -32 c-3 -5 -12 -10 -18 -10 -7 0 -6 4 3 10 19 12 23
12 15 0z m88 -37 c-7 -2 -19 -2 -25 0 -7 3 -2 5 12 5 14 0 19 -2 13 -5z
m-1572 -326 c-10 -9 -11 -8 -5 6 3 10 9 15 12 12 3 -3 0 -11 -7 -18z m2064
-57 c19 -8 19 -9 -2 -9 -12 -1 -25 4 -28 9 -7 12 2 12 30 0z m241 -205 c-23
-18 -33 -19 -41 -5 -4 6 -10 8 -15 5 -5 -3 -11 -1 -15 5 -4 6 12 10 42 10 44
-1 47 -2 29 -15z m249 -123 c32 -16 36 -22 23 -27 -11 -4 -30 3 -52 20 -20 15
-40 25 -46 23 -6 -2 8 -14 30 -28 41 -25 51 -40 26 -40 -8 0 -28 14 -44 30
-17 17 -38 30 -46 30 -9 0 -16 4 -16 9 0 16 84 5 125 -17z m55 -42 c0 -5 -9
-10 -21 -10 -11 0 -17 5 -14 10 3 6 13 10 21 10 8 0 14 -4 14 -10z m58 -60
c18 -27 35 -64 39 -81 6 -30 5 -31 -15 -20 -12 7 -31 28 -42 49 -21 41 -59 91
-60 79 0 -4 14 -26 30 -49 36 -49 30 -66 -8 -22 -69 79 -74 89 -43 81 10 -2
25 -1 32 4 25 15 34 10 67 -41z m-3 -101 c11 -17 -1 -21 -15 -4 -8 9 -8 15 -2
15 6 0 14 -5 17 -11z m41 -17 c13 -8 26 -95 13 -86 -5 3 -9 12 -9 20 0 8 -7
28 -15 44 -15 29 -11 37 11 22z m129 -250 c-8 -9 -34 7 -45 28 -12 22 -11 22
19 -1 17 -12 29 -25 26 -27z m60 -152 c3 -5 1 -10 -4 -10 -6 0 -11 5 -11 10 0
6 2 10 4 10 3 0 8 -4 11 -10z m25 -30 c0 -5 -2 -10 -4 -10 -3 0 -8 5 -11 10
-3 6 -1 10 4 10 6 0 11 -4 11 -10z m100 -125 c14 -16 10 -18 -14 -9 -9 3 -16
10 -16 15 0 14 16 11 30 -6z m46 -40 c12 -8 25 -11 29 -7 5 4 5 1 1 -6 -4 -7
2 -25 14 -42 33 -46 10 -36 -45 20 -47 47 -46 68 1 35z m64 -137 c0 -14 -19 1
-31 25 -12 22 -12 22 10 3 11 -11 21 -23 21 -28z m129 -150 l11 -33 -20 24
c-21 25 -26 41 -11 41 5 0 14 -15 20 -32z m86 -48 c3 -5 -3 -10 -15 -10 -12 0
-18 5 -15 10 3 6 10 10 15 10 5 0 12 -4 15 -10z m-60 -10 c3 -5 2 -10 -4 -10
-5 0 -13 5 -16 10 -3 6 -2 10 4 10 5 0 13 -4 16 -10z m15 -53 c0 -5 -4 -5 -10
-2 -5 3 -10 14 -10 23 0 15 2 15 10 2 5 -8 10 -19 10 -23z m29 7 c12 -27 7
-45 -8 -28 -14 14 -23 54 -13 54 5 0 14 -12 21 -26z m25 -69 c4 -14 4 -30 1
-35 -8 -13 -25 -13 -25 1 0 5 5 7 10 4 16 -10 12 11 -5 25 -19 16 -19 30 -1
30 8 0 17 -11 20 -25z m2576 -455 c0 -5 -2 -10 -4 -10 -3 0 -8 5 -11 10 -3 6
-1 10 4 10 6 0 11 -4 11 -10z m740 -30 c11 -7 4 -10 -27 -10 -23 0 -45 5 -48
10 -8 13 55 13 75 0z m310 -77 c22 -10 40 -21 40 -25 0 -12 -8 -10 -35 8 -13
9 -28 13 -34 10 -5 -3 -17 -3 -26 0 -13 5 -14 8 -3 15 17 11 11 12 58 -8z m98
-75 c9 -9 12 -9 12 0 0 16 47 -7 74 -37 25 -27 10 -27 -34 1 -19 12 -41 23
-49 24 -17 3 -39 24 -25 24 6 0 15 -5 22 -12z m202 -115 c14 -9 32 -26 40 -37
8 -12 28 -33 44 -48 17 -16 25 -28 18 -28 -6 0 -12 4 -12 8 0 5 -7 9 -15 9 -8
0 -15 -4 -15 -8 0 -9 -26 -6 -36 4 -4 4 -11 7 -16 7 -4 0 0 -8 10 -18 10 -11
27 -16 42 -14 19 3 22 1 10 -7 -8 -5 -18 -7 -22 -5 -4 3 -8 0 -8 -6 0 -6 8 -9
18 -6 12 4 23 -3 36 -22 16 -25 16 -17 -1 25 -4 10 -3 14 4 10 6 -4 13 -2 15
5 3 7 16 -4 30 -25 13 -20 27 -34 30 -31 3 3 9 0 14 -7 4 -8 3 -10 -4 -5 -17
10 -15 -6 4 -32 21 -30 7 -28 -18 3 -10 13 -22 24 -26 24 -4 -1 -10 0 -14 1
-5 1 -12 4 -18 5 -5 1 -12 4 -15 5 -5 3 -20 7 -32 9 -11 1 -65 70 -67 84 -1 7
-5 18 -9 25 -11 16 5 15 29 -3 38 -29 49 -15 14 18 -72 65 -89 101 -30 60z
m-20 -47 c0 -14 -29 8 -33 26 l-6 20 20 -20 c10 -12 19 -23 19 -26z m185 -196
c3 -6 -1 -7 -9 -4 -18 7 -21 14 -7 14 6 0 13 -4 16 -10z m-25 -31 c0 -5 4 -7
10 -4 5 3 22 -2 37 -11 24 -14 25 -14 9 0 -11 9 -15 16 -10 16 5 0 41 -29 79
-65 62 -58 67 -65 43 -62 -15 2 -31 7 -35 12 -4 4 -2 5 5 1 20 -12 13 7 -14
38 -14 15 -28 25 -31 22 -4 -3 -1 -12 5 -18 17 -17 15 -27 -5 -24 -10 2 -18 8
-18 14 0 13 -62 72 -68 66 -2 -3 -10 2 -17 11 -8 10 -9 15 -1 15 6 0 11 -5 11
-11z m-1110 -166 c-11 -17 -11 -17 -6 0 3 10 6 24 7 30 0 9 2 9 5 0 3 -7 0
-20 -6 -30z m1205 -34 c9 -17 15 -33 13 -35 -3 -2 -12 12 -21 31 -21 43 -13
47 8 4z m105 -139 c0 -6 -7 -10 -15 -10 -8 0 -15 2 -15 4 0 2 -3 12 -7 21 -5
15 -3 16 15 6 12 -7 22 -16 22 -21z m30 2 c0 -5 6 -9 13 -9 6 0 21 -4 31 -9
14 -5 17 -4 12 4 -4 7 -2 12 3 12 13 0 14 -10 3 -26 -8 -12 -112 -17 -112 -5
0 15 27 20 39 8 6 -6 11 -7 11 -1 0 6 -5 15 -12 22 -9 9 -9 12 0 12 7 0 12 -4
12 -8z m55 -110 c-3 -3 -11 0 -18 7 -9 10 -8 11 6 5 10 -3 15 -9 12 -12z m-15
-17 c35 -18 40 -39 8 -30 -28 9 -68 45 -50 45 7 0 26 -7 42 -15z m53 -52 c-7
-2 -19 -2 -25 0 -7 3 -2 5 12 5 14 0 19 -2 13 -5z m60 -47 c9 -7 17 -19 17
-25 0 -7 -8 -11 -17 -9 -10 2 -18 10 -18 17 0 8 -9 17 -20 22 l-20 8 20 0 c11
0 28 -6 38 -13z m93 -40 c16 -15 34 -24 44 -21 9 3 25 -2 36 -11 19 -15 19
-16 -1 -9 -11 4 -32 8 -47 9 -16 1 -37 12 -48 24 -12 12 -25 22 -30 22 -5 0
-14 9 -20 19 -9 19 -8 19 15 7 13 -7 37 -25 51 -40z m-42 -21 c16 -24 16 -25
-8 -25 -28 0 -55 35 -33 43 21 9 24 8 41 -18z m-1657 -72 c-2 -16 -4 -3 -4 27
0 30 2 43 4 28 2 -16 2 -40 0 -55z m1693 22 c7 -8 8 -15 2 -15 -5 0 -15 7 -22
15 -7 8 -8 15 -2 15 5 0 15 -7 22 -15z m41 -3 c8 -9 28 -28 44 -40 29 -22 29
-23 5 -17 -19 5 -22 4 -10 -4 8 -6 22 -11 30 -11 8 0 27 -13 43 -29 l27 -29
-26 3 c-24 2 -99 64 -89 73 3 3 -4 11 -15 19 -22 16 -45 53 -33 53 5 0 15 -8
24 -18z m92 -2 c14 -11 40 -44 57 -73 27 -44 28 -49 8 -30 -58 53 -84 80 -96
98 -12 19 -13 19 -7 1 5 -16 3 -17 -10 -6 -13 11 -13 15 -3 21 19 12 22 11 51
-11z m-388 0 c3 -6 -1 -7 -9 -4 -18 7 -21 14 -7 14 6 0 13 -4 16 -10z m15 -46
c0 -20 -7 -17 -20 6 -9 16 -8 18 5 14 8 -4 15 -12 15 -20z m265 -2 c-3 -3 -11
0 -18 7 -9 10 -8 11 6 5 10 -3 15 -9 12 -12z m225 -47 c45 -61 49 -70 20 -55
-11 6 -20 16 -20 21 0 6 -14 29 -31 50 -17 21 -26 39 -20 39 6 0 29 -25 51
-55z m-425 25 c3 -5 1 -10 -4 -10 -6 0 -11 5 -11 10 0 6 2 10 4 10 3 0 8 -4
11 -10z m200 -30 c3 -6 -1 -7 -9 -4 -18 7 -21 14 -7 14 6 0 13 -4 16 -10z
m-147 -104 c29 -26 28 -38 -2 -24 -15 6 -35 33 -50 65 -34 70 -33 78 2 22 16
-24 39 -53 50 -63z m172 72 c0 -4 6 -8 14 -8 12 0 86 -73 86 -85 0 -3 -16 -5
-35 -5 -26 0 -45 9 -73 35 -22 19 -43 31 -47 27 -5 -4 -5 -1 -1 6 4 6 17 13
29 13 16 1 14 3 -8 8 -16 3 -31 14 -33 23 -3 14 1 15 32 6 20 -6 36 -15 36
-20z m155 2 c3 -5 1 -10 -4 -10 -6 0 -11 5 -11 10 0 6 2 10 4 10 3 0 8 -4 11
-10z m-318 -20 c37 -22 66 -62 61 -85 -3 -14 -5 -14 -25 0 -25 18 -88 105 -76
105 4 0 22 -9 40 -20z m293 -25 c15 -1 17 1 9 12 -20 24 3 14 27 -12 12 -14
29 -22 37 -20 7 3 22 -3 32 -15 19 -21 8 -29 -13 -8 -9 9 -12 9 -12 0 0 -17
-25 -15 -40 4 -8 8 -23 20 -34 26 -20 11 -20 10 -3 -9 18 -21 23 -38 8 -28 -5
3 -24 24 -42 48 -21 26 -25 35 -11 23 13 -11 31 -20 42 -21z m-10 25 c0 -5 -2
-10 -4 -10 -3 0 -8 5 -11 10 -3 6 -1 10 4 10 6 0 11 -4 11 -10z m-190 -42 c0
-6 -7 -5 -15 2 -8 7 -15 17 -15 22 0 6 7 5 15 -2 8 -7 15 -17 15 -22z m275 23
c10 -17 -12 -21 -25 -6 -10 12 -10 15 3 15 9 0 18 -4 22 -9z m-229 -48 c-8 -8
-36 10 -36 25 0 13 3 12 20 -3 11 -10 18 -20 16 -22z m313 7 c6 0 17 -5 24
-10 7 -6 23 -19 37 -30 25 -19 25 -19 3 -20 -13 0 -29 10 -39 25 -9 14 -23 25
-31 25 -15 0 -43 23 -43 36 0 4 8 0 18 -9 10 -10 24 -17 31 -17z m-339 -52 c0
-14 -18 -9 -24 8 -11 28 -6 39 9 20 8 -11 15 -23 15 -28z m350 12 c7 -13 7
-20 1 -20 -6 0 -15 9 -21 20 -7 13 -7 20 -1 20 6 0 15 -9 21 -20z m-239 -26
c18 -19 27 -34 20 -34 -6 0 -26 15 -43 33 -18 17 -26 24 -19 15 8 -10 10 -18
5 -18 -5 0 -2 -4 6 -10 27 -17 3 -21 -34 -6 -36 15 -48 40 -23 49 31 11 58 2
88 -29z m70 4 l23 -31 -22 5 c-13 4 -22 1 -23 -5 0 -7 -3 -6 -6 2 -3 8 -18 25
-32 37 l-26 23 32 1 c24 0 37 -7 54 -32z m29 0 l23 -33 -31 29 c-34 31 -37 36
-24 36 5 0 19 -15 32 -32z m20 22 c0 -5 -2 -10 -4 -10 -3 0 -8 5 -11 10 -3 6
-1 10 4 10 6 0 11 -4 11 -10z m76 -5 c26 -19 -1 -20 -36 0 -23 13 -23 14 -4
15 11 0 29 -7 40 -15z m-393 -2 c-7 -2 -19 -2 -25 0 -7 3 -2 5 12 5 14 0 19
-2 13 -5z m44 -30 c3 -7 -3 -9 -16 -6 -12 3 -21 10 -21 15 0 13 32 6 37 -9z
m297 8 c3 -5 24 -7 45 -4 33 5 41 2 50 -16 14 -26 3 -27 -42 -6 l-32 16 24
-21 c13 -11 34 -20 47 -20 13 0 24 -4 24 -10 0 -5 7 -10 15 -10 8 0 15 -4 15
-8 0 -5 11 -15 25 -22 47 -25 17 -21 -37 5 -97 47 -178 104 -151 105 6 0 14
-4 17 -9z m-289 -41 c8 -13 -5 -13 -25 0 -13 8 -13 10 2 10 9 0 20 -4 23 -10z
m169 -4 c13 -2 40 -16 60 -31 39 -29 42 -44 6 -25 -32 17 -73 23 -65 10 4 -6
-17 1 -46 16 -37 19 -48 29 -37 32 10 2 33 -6 50 -18 28 -19 30 -19 11 -2 -23
21 -32 38 -12 27 5 -4 21 -8 33 -9z m79 4 c7 0 6 -4 -3 -10 -12 -8 -11 -10 8
-10 12 0 22 -4 22 -9 0 -5 7 -12 16 -15 14 -5 15 -4 4 9 -8 10 -9 15 -2 15 6
0 16 -9 22 -19 8 -16 7 -19 -13 -16 -35 4 -72 24 -86 47 -11 18 -11 20 4 14 9
-3 22 -6 28 -6z m-183 -10 c0 -5 -2 -10 -4 -10 -3 0 -8 5 -11 10 -3 6 -1 10 4
10 6 0 11 -4 11 -10z m294 -33 c14 -8 23 -17 19 -20 -12 -13 -28 -7 -41 13
-14 24 -12 24 22 7z m-67 -43 c-3 -3 -12 -4 -19 -1 -8 3 -5 6 6 6 11 1 17 -2
13 -5z m77 -35 c-3 -5 -13 -5 -24 1 -28 15 -37 12 -14 -5 18 -14 17 -14 -11
-15 -17 0 -36 5 -43 12 -10 10 -3 15 30 23 42 11 74 3 62 -16z m74 -17 c3 -11
-14 -11 -68 -3 -3 1 2 6 10 11 19 13 52 9 58 -8z m-183 -32 c-11 -5 -29 -9
-40 -9 l-20 0 20 9 c11 5 29 9 40 9 l20 0 -20 -9z m110 0 c4 -6 -7 -10 -27 -9
-31 1 -32 1 -8 9 14 4 26 8 27 9 1 1 5 -3 8 -9z m-65 -24 c0 -9 -7 -12 -21 -9
-16 4 -17 8 -7 14 19 13 28 11 28 -5z m-90 -15 c-8 -5 -26 -12 -40 -15 -24 -7
-24 -6 -6 8 11 9 29 16 40 16 17 -1 18 -2 6 -9z m120 -11 c0 -5 -2 -10 -4 -10
-3 0 -8 5 -11 10 -3 6 -1 10 4 10 6 0 11 -4 11 -10z m-65 -10 c22 -9 20 -10
-55 -15 l-45 -2 30 13 c35 15 43 16 70 4z m165 -15 l45 -15 -44 4 c-24 2 -48
9 -54 15 -15 15 -1 14 53 -4z m-2003 -72 c-2 -16 -4 -3 -4 27 0 30 2 43 4 28
2 -16 2 -40 0 -55z m1645 36 c-15 -6 -30 -5 -40 1 -13 7 -8 9 23 9 35 0 37 -1
17 -10z m216 -19 c24 -11 41 -24 37 -30 -8 -13 -62 -13 -70 0 -4 6 -10 8 -15
5 -5 -3 -11 -1 -14 4 -6 9 15 9 69 -3 17 -3 6 3 -24 14 -30 11 -56 22 -59 25
-13 12 37 3 76 -15z m-3267 -150 c-26 -234 -34 -290 -41 -290 -19 0 -45 129
-45 220 1 100 18 153 69 208 l21 24 4 -29 c1 -15 -2 -75 -8 -133z m3152 130
c10 -10 9 -11 -3 -4 -8 4 -28 7 -45 6 -23 -2 -26 0 -15 7 19 13 46 9 63 -9z
m236 -56 l26 -15 -35 4 c-19 3 -51 12 -70 21 l-35 16 44 -5 c24 -3 55 -12 70
-21z m-1949 -46 c0 -33 -4 -48 -9 -42 -9 8 -4 94 5 94 2 0 4 -23 4 -52z m1810
42 c11 -7 5 -10 -23 -10 -23 0 -36 4 -32 10 8 13 35 13 55 0z m200 0 c13 -8
13 -10 -2 -10 -9 0 -20 5 -23 10 -8 13 5 13 25 0z m260 -35 c10 -13 9 -15 -8
-15 -22 0 -36 13 -25 24 10 10 20 7 33 -9z m-563 -1 c-3 -3 -12 -4 -19 -1 -8
3 -5 6 6 6 11 1 17 -2 13 -5z m400 0 c-3 -3 -12 -4 -19 -1 -8 3 -5 6 6 6 11 1
17 -2 13 -5z m-2080 -46 c-3 -7 -5 -2 -5 12 0 14 2 19 5 13 2 -7 2 -19 0 -25z
m2096 18 c20 -8 37 -10 37 -5 0 9 58 -9 79 -25 11 -8 13 -8 7 2 -4 6 -5 12 -3
12 16 0 94 -33 109 -47 20 -18 14 -37 -11 -28 -9 4 -31 8 -49 10 -18 2 -49 16
-70 31 -20 16 -31 20 -23 11 16 -21 9 -21 -32 -3 -18 8 -49 19 -69 26 -21 6
-40 16 -43 21 -9 13 23 10 68 -5z m-154 -19 c14 -1 25 -9 27 -19 1 -10 1 -18
0 -18 -1 0 -25 8 -54 18 -63 23 -80 37 -32 28 19 -4 46 -8 59 -9z m-1938 -77
c5 0 9 -5 9 -11 0 -7 21 -54 46 -105 53 -110 57 -156 5 -76 -18 29 -36 52 -40
52 -4 0 -8 6 -9 13 -1 6 -8 37 -17 67 -8 30 -14 70 -13 90 l1 35 4 -32 c2 -18
8 -33 14 -33z m2123 40 c7 -7 3 -10 -11 -10 -12 0 -25 5 -29 11 -5 8 -8 8 -14
0 -5 -9 -10 -8 -20 4 -11 13 -8 15 25 10 21 -2 43 -9 49 -15z m-89 0 c3 -6 -1
-7 -9 -4 -18 7 -21 14 -7 14 6 0 13 -4 16 -10z m409 -72 c-16 -7 -29 -5 -48 7
-14 10 -26 22 -26 28 0 5 -8 16 -17 24 -10 8 11 -1 47 -18 58 -29 63 -33 44
-41z m-354 42 c8 -5 11 -10 5 -10 -5 0 -17 5 -25 10 -8 5 -10 10 -5 10 6 0 17
-5 25 -10z m60 0 c0 -13 -11 -13 -30 0 -12 8 -11 10 8 10 12 0 22 -4 22 -10z
m46 -5 c18 -15 18 -15 -5 -13 -14 2 -26 9 -29 16 -5 17 10 15 34 -3z m-192 -4
c7 -11 -39 -20 -55 -11 -8 6 -6 9 7 13 31 8 43 7 48 -2z m-1964 -36 c0 -5 -5
-3 -10 5 -5 8 -10 20 -10 25 0 6 5 3 10 -5 5 -8 10 -19 10 -25z m2065 21 c21
2 25 0 15 -6 -8 -5 -18 -6 -22 -4 -4 3 -8 1 -8 -3 0 -11 -34 -13 -80 -6 -34 5
-34 6 -11 14 16 6 28 6 35 -1 17 -17 30 -11 15 7 -13 14 -12 15 6 6 11 -5 33
-8 50 -7z m268 -7 c10 -11 17 -23 14 -25 -2 -3 -10 2 -17 11 -7 8 -19 15 -26
15 -8 0 -14 5 -14 10 0 17 25 11 43 -11z m-446 5 c-3 -3 -12 -4 -19 -1 -8 3
-5 6 6 6 11 1 17 -2 13 -5z m225 -33 c-25 -11 -35 -12 -44 -3 -9 9 -5 12 20
12 18 0 32 5 32 11 0 5 5 7 12 3 8 -5 0 -13 -20 -23z m128 9 c21 -7 22 -8 5
-9 -17 -1 -17 -3 -5 -11 11 -7 1 -10 -34 -10 -27 0 -46 3 -43 7 4 3 2 12 -4
20 -9 10 -5 13 22 12 19 -1 45 -5 59 -9z m-295 -9 c-12 -11 -95 -19 -95 -9 0
3 -8 9 -17 11 -10 3 13 5 52 6 41 1 65 -3 60 -8z m160 -49 c16 -15 22 -18 13
-7 -14 17 -14 22 -3 32 12 11 21 6 50 -24 19 -20 35 -40 35 -45 0 -5 4 -7 8
-4 5 3 30 -19 56 -49 30 -35 42 -55 32 -55 -8 0 -29 20 -45 44 -17 24 -41 46
-53 49 -22 6 -22 5 -4 -8 10 -8 22 -16 25 -17 4 -2 17 -18 31 -37 l23 -34 -29
7 c-16 4 -37 8 -46 9 -9 1 -15 4 -12 8 5 8 -27 22 -34 14 -3 -3 1 -5 8 -5 7 0
11 -3 7 -6 -6 -6 -137 34 -137 42 0 2 11 2 25 -2 14 -3 25 -4 25 -1 0 3 -26
11 -57 17 -43 9 -70 22 -102 50 l-44 38 44 11 c71 16 148 5 184 -27z m182 32
c-3 -3 -12 -4 -19 -1 -8 3 -5 6 6 6 11 1 17 -2 13 -5z m153 -40 c0 -2 -9 0
-20 6 -11 6 -20 13 -20 16 0 2 9 0 20 -6 11 -6 20 -13 20 -16z m-545 -10 l30
-25 -30 15 c-16 8 -37 20 -45 25 -13 10 -13 11 0 11 8 0 29 -12 45 -26z m175
-139 c14 -8 19 -14 10 -14 -8 0 -26 6 -40 14 -14 8 -19 14 -10 14 8 0 26 -6
40 -14z m118 1 c85 -15 97 -22 50 -31 -37 -7 -97 6 -138 30 -22 13 -23 14 -5
14 11 0 53 -6 93 -13z m195 -13 c-7 -2 -19 -2 -25 0 -7 3 -2 5 12 5 14 0 19
-2 13 -5z m23 -24 c2 -4 12 -6 22 -3 15 5 15 4 -1 -6 -10 -6 -26 -8 -35 -4
-24 10 -36 11 -43 2 -3 -4 -14 -2 -24 6 -16 12 -13 13 29 13 25 0 49 -4 52 -8z
m-113 -6 c-7 -2 -19 -2 -25 0 -7 3 -2 5 12 5 14 0 19 -2 13 -5z m-135 -10
c-10 -2 -26 -2 -35 0 -10 3 -2 5 17 5 19 0 27 -2 18 -5z m102 -14 c0 -8 12
-10 35 -6 19 3 35 2 35 -2 0 -11 -93 -27 -120 -20 -23 6 -22 7 10 11 30 4 28
5 -15 7 -36 1 -46 4 -35 11 21 14 90 13 90 -1z m190 -19 c0 -5 -7 -10 -15 -10
-8 0 -15 5 -15 10 0 6 7 10 15 10 8 0 15 -4 15 -10z m-90 -20 c0 -5 -18 -10
-41 -10 -24 0 -38 4 -34 10 3 6 22 10 41 10 19 0 34 -4 34 -10z m348 -53 c54
-19 143 -73 190 -114 34 -29 35 -32 15 -33 -12 0 -46 11 -75 24 -130 59 -226
95 -290 110 -16 4 -28 11 -28 16 0 5 7 7 15 4 8 -4 15 -1 15 4 0 24 76 18 158
-11z m-274 -16 c5 -8 -47 -21 -88 -21 -42 0 1 16 76 29 4 0 9 -3 12 -8z m56
-7 c0 -2 -9 -4 -20 -4 -11 0 -20 4 -20 9 0 5 9 7 20 4 11 -3 20 -7 20 -9z
m-313 0 c-3 -3 -12 -4 -19 -1 -8 3 -5 6 6 6 11 1 17 -2 13 -5z m130 -10 c-3
-3 -12 -4 -19 -1 -8 3 -5 6 6 6 11 1 17 -2 13 -5z m203 -14 c0 -5 -4 -10 -9
-10 -6 0 -13 5 -16 10 -3 6 1 10 9 10 9 0 16 -4 16 -10z m87 -1 c15 -6 38 -13
50 -15 30 -6 73 -22 73 -28 0 -3 -18 1 -39 9 -22 7 -41 11 -44 9 -3 -3 -22 4
-44 15 -42 22 -40 27 4 10z m-74 -22 c41 -4 88 -37 53 -37 -9 0 -24 7 -32 15
-9 8 -20 15 -26 15 -6 0 -6 -6 2 -15 19 -23 -6 -20 -81 10 l-64 25 55 -4 c30
-2 72 -6 93 -9z m152 -27 c19 -8 19 -9 -2 -9 -12 -1 -25 4 -28 9 -7 12 2 12
30 0z m-535 -10 c-36 -11 -50 -11 -50 0 0 6 17 10 38 9 33 -1 34 -2 12 -9z
m230 -26 c12 -12 7 -14 -37 -14 -29 0 -55 5 -58 10 -4 7 -26 9 -53 6 l-47 -6
45 14 c51 16 128 10 150 -10z m35 5 c11 -17 -1 -21 -15 -4 -8 9 -8 15 -2 15 6
0 14 -5 17 -11z m122 -15 c-3 -3 -12 -4 -19 -1 -8 3 -5 6 6 6 11 1 17 -2 13
-5z m143 -15 c0 -4 -7 -6 -15 -3 -8 4 -15 10 -15 15 0 4 7 6 15 3 8 -4 15 -10
15 -15z m155 11 c8 -13 -25 -13 -45 0 -12 8 -9 10 12 10 15 0 30 -4 33 -10z
m-265 -10 c0 -5 -4 -10 -10 -10 -5 0 -10 5 -10 10 0 6 5 10 10 10 6 0 10 -4
10 -10z m175 0 c3 -5 -1 -10 -10 -10 -9 0 -13 5 -10 10 3 6 8 10 10 10 2 0 7
-4 10 -10z m125 -8 c0 -4 10 -12 22 -17 12 -6 24 -16 26 -24 4 -11 2 -12 -9
-3 -8 7 -25 21 -39 32 -14 10 -19 19 -12 20 6 0 12 -3 12 -8z m105 -2 c3 -5 2
-10 -4 -10 -5 0 -13 5 -16 10 -3 6 -2 10 4 10 5 0 13 -4 16 -10z m-345 -9 c0
-6 -10 -8 -21 -6 -33 6 -36 15 -6 15 15 0 27 -4 27 -9z m185 -1 c3 -5 16 -10
28 -10 12 0 31 -7 41 -15 20 -15 20 -15 0 -16 -63 -4 -141 22 -128 43 7 11 52
10 59 -2z m228 -68 c9 -8 17 -20 17 -25 0 -6 6 -18 13 -27 6 -9 1 -4 -13 10
-14 14 -49 43 -77 64 -29 21 -53 40 -53 42 0 6 90 -45 113 -64z m-598 37 c12
-18 0 -20 -56 -12 -53 7 -53 7 -19 14 55 10 68 10 75 -2z m45 1 c-19 -13 -30
-13 -30 0 0 6 10 10 23 10 18 0 19 -2 7 -10z m190 -10 c0 -4 17 -8 38 -9 202
-5 199 -5 226 -30 14 -14 24 -27 21 -29 -9 -9 37 -52 49 -45 7 4 7 2 0 -6 -14
-15 -43 -3 -89 38 -23 21 -26 21 -11 3 l19 -22 -38 16 c-21 9 -55 27 -74 41
-30 21 -32 22 -11 3 l25 -23 -34 7 c-19 3 -44 14 -55 24 -20 16 -20 16 -7 0 7
-10 9 -18 3 -18 -15 0 -33 26 -24 36 4 5 -3 0 -16 -10 -22 -19 -23 -19 -40 -1
-9 10 -11 15 -4 11 6 -4 12 -2 12 3 0 6 -7 11 -15 11 -8 0 -15 4 -15 9 0 5 9
7 20 4 11 -3 20 -9 20 -13z m-393 4 c-3 -3 -12 -4 -19 -1 -8 3 -5 6 6 6 11 1
17 -2 13 -5z m293 1 c0 -8 -58 -35 -75 -35 -29 0 -15 18 23 28 46 12 52 13 52
7z m40 -20 c11 -13 7 -15 -26 -15 -35 0 -37 1 -18 15 24 18 29 18 44 0z m398
-41 c29 -25 50 -50 46 -55 -3 -5 0 -8 6 -7 6 2 23 -12 37 -29 26 -33 26 -45 1
-19 -8 7 -24 17 -37 21 -18 6 -22 4 -15 -6 6 -12 5 -12 -9 0 -18 15 -23 26 -7
16 6 -3 10 -2 10 3 0 10 -29 26 -41 24 -4 -1 -15 8 -24 18 -10 11 -14 20 -10
20 5 0 -4 14 -20 30 -48 51 1 38 63 -16z m-545 9 c-7 -2 -19 -2 -25 0 -7 3 -2
5 12 5 14 0 19 -2 13 -5z m-50 -20 c-7 -2 -19 -2 -25 0 -7 3 -2 5 12 5 14 0
19 -2 13 -5z m357 -7 c-1 -5 17 -17 39 -27 49 -22 53 -31 9 -23 -36 7 -84 44
-58 44 13 0 13 2 0 11 -10 7 -11 9 -2 7 8 -2 13 -7 12 -12z m108 -23 c36 -17
44 -38 10 -27 -35 10 -76 33 -84 45 -8 13 22 5 74 -18z m62 -33 c0 -5 -2 -10
-4 -10 -3 0 -8 5 -11 10 -3 6 -1 10 4 10 6 0 11 -4 11 -10z m-585 -64 l70 -33
-64 3 c-35 2 -67 6 -70 10 -3 4 14 4 39 0 72 -11 41 2 -46 19 -106 22 -114 25
-89 36 30 13 83 1 160 -35z m691 3 c19 -37 15 -36 -25 5 -29 30 -31 34 -12 29
12 -3 28 -18 37 -34z m-2687 -14 c0 -5 -4 -3 -9 5 -5 8 -9 22 -9 30 0 16 17
-16 18 -35z m-21 -10 c-3 -3 -9 2 -12 12 -6 14 -5 15 5 6 7 -7 10 -15 7 -18z
m117 -77 c14 -29 25 -63 25 -74 0 -12 7 -27 15 -34 8 -7 15 -20 16 -29 0 -12
2 -11 8 4 7 16 11 9 25 -37 9 -32 18 -58 20 -58 7 0 -1 56 -13 92 -7 21 -10
42 -7 47 4 5 2 12 -4 16 -5 3 -10 12 -10 18 0 7 9 1 19 -13 11 -13 17 -28 15
-32 -2 -3 0 -9 6 -13 5 -3 9 -28 8 -55 -2 -43 2 -54 29 -82 32 -34 52 -78 35
-78 -6 0 -20 20 -32 45 -23 47 -40 65 -40 43 0 -7 -9 -2 -19 12 -11 13 -17 28
-14 32 2 5 0 7 -5 6 -11 -3 -77 74 -96 111 -24 47 -30 131 -10 131 3 0 16 -24
29 -52z m-65 -7 c-1 -10 -6 -7 -15 9 -19 33 -18 50 0 26 8 -11 15 -27 15 -35z
m112 -50 c2 -17 1 -28 -3 -26 -4 3 -9 18 -11 34 -2 17 -1 28 3 26 4 -3 9 -18
11 -34z m2082 -47 c26 -15 46 -28 44 -30 -10 -9 -86 20 -96 37 -16 26 -3 24
52 -7z m-2119 -41 c28 -42 36 -79 11 -53 -14 15 -48 90 -41 90 2 0 16 -17 30
-37z m200 7 c3 -5 1 -10 -4 -10 -6 0 -11 5 -11 10 0 6 2 10 4 10 3 0 8 -4 11
-10z m-25 -47 c0 -22 -8 -14 -19 20 -10 29 -9 30 4 13 8 -11 15 -26 15 -33z
m-6 -63 l7 -25 -20 24 c-12 13 -21 36 -20 55 l1 31 13 -30 c7 -16 16 -41 19
-55z m2054 74 c12 -4 22 -10 22 -14 0 -8 -80 6 -89 16 -6 6 40 5 67 -2z m57
-22 c-3 -3 -11 0 -18 7 -9 10 -8 11 6 5 10 -3 15 -9 12 -12z m103 -39 c56 -20
48 -27 -14 -13 -27 7 -64 13 -83 15 -18 2 -38 8 -45 15 -15 16 84 4 142 -17z
m146 -28 c21 -9 36 -18 34 -20 -10 -10 -178 56 -178 70 0 5 87 -25 144 -50z
m11 35 c87 -25 164 -62 194 -94 l24 -25 -54 20 c-30 12 -90 38 -134 58 -44 21
-91 42 -105 49 -41 18 0 14 75 -8z m-543 -12 c15 0 30 -3 33 -8 11 -18 -19
-22 -76 -9 -42 9 -55 15 -42 20 10 4 27 5 38 1 11 -3 32 -5 47 -4z m-225 -14
c-3 -3 -12 -4 -19 -1 -8 3 -5 6 6 6 11 1 17 -2 13 -5z m-160 -20 c-3 -3 -12
-4 -19 -1 -8 3 -5 6 6 6 11 1 17 -2 13 -5z m93 -16 c0 -6 -6 -5 -15 2 -8 7
-15 14 -15 16 0 2 7 1 15 -2 8 -4 15 -11 15 -16z m463 15 c-7 -2 -21 -2 -30 0
-10 3 -4 5 12 5 17 0 24 -2 18 -5z m-1758 -23 c10 -11 16 -20 13 -20 -3 0 -13
9 -23 20 -10 11 -16 20 -13 20 3 0 13 -9 23 -20z m1390 -21 l40 -41 -40 26
c-22 14 -49 32 -60 40 -20 15 -20 15 0 16 12 0 39 -18 60 -41z m798 7 c26 -8
65 -28 88 -45 23 -16 47 -28 53 -24 6 3 8 3 4 -2 -4 -4 -3 -14 3 -22 14 -17
-2 -17 -20 0 -11 10 -13 10 -7 0 13 -24 -12 -13 -91 39 -115 76 -118 80 -30
54z m-1237 -5 c5 -5 37 -19 72 -31 97 -35 66 -34 -39 1 -107 36 -114 39 -73
39 17 0 34 -4 40 -9z m-885 -28 l24 -27 -24 15 c-14 9 -27 21 -29 27 -6 19 3
14 29 -15z m946 -59 c-3 -3 -12 -4 -19 -1 -8 3 -5 6 6 6 11 1 17 -2 13 -5z
m-798 -44 c29 -22 50 -40 47 -40 -16 0 -83 40 -100 59 -30 34 -5 24 53 -19z
m838 34 c-3 -3 -12 -4 -19 -1 -8 3 -5 6 6 6 11 1 17 -2 13 -5z m-91 -62 c-2
-2 -30 5 -62 14 -33 9 -53 19 -46 21 6 3 10 9 6 14 -3 5 19 -3 50 -18 30 -15
54 -29 52 -31z m219 37 l20 -8 -20 1 c-11 0 -42 6 -70 13 l-50 14 50 -6 c28
-3 59 -9 70 -14z m-984 -46 c10 -13 6 -12 -17 4 -17 12 -37 30 -45 40 -10 13
-6 12 17 -4 17 -12 37 -30 45 -40z m1000 18 c58 -11 126 -28 150 -40 l44 -21
-67 5 c-79 6 -195 35 -258 64 -45 20 -45 20 -10 16 19 -3 83 -14 141 -24z
m-216 -36 c6 -3 -10 -2 -35 1 -25 3 -49 10 -54 14 -8 8 67 -5 89 -15z m-530
-110 c29 -25 29 -26 5 -19 -53 14 -208 107 -225 135 -11 16 187 -87 220 -116z
m620 90 c54 -17 33 -18 -30 -1 -27 8 -41 14 -30 14 11 0 38 -5 60 -13z m395
-6 c12 -7 11 -8 -5 -8 -11 0 -31 6 -45 14 l-25 15 30 -6 c17 -4 37 -10 45 -15z
m44 -45 c6 -15 4 -15 -11 -3 -10 7 -20 15 -22 16 -2 2 3 3 11 3 9 0 19 -7 22
-16z m246 -59 c0 -3 -18 4 -40 15 -22 11 -40 23 -40 25 0 3 18 -4 40 -15 22
-11 40 -23 40 -25z m-803 9 c-3 -3 -12 -4 -19 -1 -8 3 -5 6 6 6 11 1 17 -2 13
-5z m138 -34 c3 -6 -1 -7 -9 -4 -18 7 -21 14 -7 14 6 0 13 -4 16 -10z m29 -32
c-4 -7 -2 -8 4 -4 6 4 35 -9 64 -29 l53 -35 -45 0 c-49 0 -54 2 -90 43 -16 19
-20 27 -10 25 8 -2 14 3 12 10 -1 8 2 11 8 7 6 -3 7 -11 4 -17z m173 -9 c82
-29 173 -74 173 -86 0 -3 -17 -2 -37 1 -32 6 -82 29 -223 103 -42 22 -6 14 87
-18z m-35 -36 c9 -8 20 -13 25 -10 5 3 19 -1 33 -9 24 -14 24 -14 -17 -11 -28
3 -54 14 -82 36 -23 18 -41 35 -41 37 0 7 63 -26 82 -43z m733 -33 c24 -25 25
-28 8 -34 -9 -4 -14 -4 -10 0 8 8 -94 45 -133 49 -14 1 -33 3 -42 3 -10 1 -18
7 -18 13 0 7 9 9 21 6 12 -3 18 -3 15 1 -4 3 8 11 26 17 28 10 39 9 70 -8 21
-11 49 -33 63 -47z m-915 27 c0 -5 -15 -5 -32 -2 -43 10 -53 16 -38 25 14 9
70 -10 70 -23z m31 6 c13 -16 12 -17 -3 -4 -10 7 -18 15 -18 17 0 8 8 3 21
-13z m-28 -53 c26 -16 47 -32 47 -34 0 -8 -83 20 -125 42 l-40 21 36 1 c22 0
52 -11 82 -30z m18 13 c13 -15 12 -15 -8 -4 -24 12 -29 21 -14 21 5 0 15 -7
22 -17z m69 -28 c19 -19 31 -35 26 -35 -9 0 -66 29 -66 34 0 3 -3 11 -6 20
-10 26 10 18 46 -19z m123 21 c10 -1 22 -7 25 -12 4 -5 16 -16 27 -24 19 -14
20 -14 3 6 -10 11 -18 23 -18 26 0 9 81 -9 93 -21 6 -6 16 -11 22 -11 5 0 3 5
-5 10 -12 7 -8 10 15 10 39 0 64 -15 40 -24 -9 -3 -21 -4 -26 -1 -5 3 -17 1
-28 -5 -13 -7 -28 -7 -46 0 -17 7 -24 7 -20 0 4 -6 -24 -10 -77 -9 -83 0 -83
1 -113 36 l-30 36 60 -7 c33 -4 68 -9 78 -10z m-196 -47 c30 -8 48 -20 59 -38
13 -22 14 -23 9 -3 -4 12 -2 22 3 22 11 0 160 -130 206 -179 17 -17 26 -31 22
-31 -18 0 -162 85 -188 111 -15 14 -29 24 -32 22 -4 -5 -82 51 -136 97 -19 17
-20 20 -6 16 10 -4 38 -11 63 -17z m452 -12 c6 -8 8 -16 5 -19 -3 -3 5 -9 18
-13 13 -4 46 -32 73 -62 l50 -56 -86 69 c-47 38 -95 74 -105 81 -18 11 -17 12
7 12 15 1 32 -5 38 -12z"/>
<path d="M10040 4310 c0 -5 5 -10 11 -10 5 0 7 5 4 10 -3 6 -8 10 -11 10 -2 0
-4 -4 -4 -10z"/>
<path d="M10470 3416 c0 -2 8 -10 18 -17 15 -13 16 -12 3 4 -13 16 -21 21 -21
13z"/>
<path d="M10570 3336 c0 -2 8 -10 18 -17 15 -13 16 -12 3 4 -13 16 -21 21 -21
13z"/>
<path d="M11080 2686 c0 -2 8 -10 18 -17 15 -13 16 -12 3 4 -13 16 -21 21 -21
13z"/>
<path d="M11045 2610 c27 -12 43 -12 25 0 -8 5 -22 9 -30 9 -10 0 -8 -3 5 -9z"/>
<path d="M11528 2403 c7 -3 16 -2 19 1 4 3 -2 6 -13 5 -11 0 -14 -3 -6 -6z"/>
<path d="M11760 2157 c0 -2 14 -13 30 -25 17 -13 30 -18 30 -13 0 6 -13 17
-30 26 -16 9 -30 14 -30 12z"/>
<path d="M11830 2147 c0 -3 12 -12 26 -22 15 -9 23 -12 20 -6 -7 11 -46 35
-46 28z"/>
<path d="M11910 2106 c0 -2 8 -10 18 -17 15 -13 16 -12 3 4 -13 16 -21 21 -21
13z"/>
<path d="M11408 1633 c7 -3 16 -2 19 1 4 3 -2 6 -13 5 -11 0 -14 -3 -6 -6z"/>
<path d="M11680 1166 c0 -2 8 -10 18 -17 15 -13 16 -12 3 4 -13 16 -21 21 -21
13z"/>
<path d="M3011 7504 c0 -11 3 -14 6 -6 3 7 2 16 -1 19 -3 4 -6 -2 -5 -13z"/>
<path d="M4358 7363 c6 -2 18 -2 25 0 6 3 1 5 -13 5 -14 0 -19 -2 -12 -5z"/>
<path d="M4151 7326 c2 -2 18 -6 34 -10 22 -5 26 -4 15 4 -14 9 -59 15 -49 6z"/>
<path d="M4276 7304 c-15 -14 -26 -27 -24 -29 2 -3 17 9 33 25 35 36 30 39 -9
4z"/>
<path d="M4505 7180 c-3 -6 1 -7 9 -4 18 7 21 14 7 14 -6 0 -13 -4 -16 -10z"/>
<path d="M4733 6953 c9 -2 23 -2 30 0 6 3 -1 5 -18 5 -16 0 -22 -2 -12 -5z"/>
<path d="M4800 6946 c0 -9 30 -14 35 -6 4 6 -3 10 -14 10 -12 0 -21 -2 -21 -4z"/>
<path d="M5485 6180 c-13 -6 -15 -9 -5 -9 8 0 22 4 30 9 18 12 2 12 -25 0z"/>
<path d="M5498 6063 c7 -3 16 -2 19 1 4 3 -2 6 -13 5 -11 0 -14 -3 -6 -6z"/>
<path d="M5548 6033 c12 -2 30 -2 40 0 9 3 -1 5 -23 4 -22 0 -30 -2 -17 -4z"/>
<path d="M5745 5970 c10 -11 20 -20 23 -20 3 0 -3 9 -13 20 -10 11 -20 20 -23
20 -3 0 3 -9 13 -20z"/>
<path d="M5975 5625 c-16 -8 -50 -15 -75 -16 l-45 -2 40 -6 c29 -5 50 -2 78
11 20 10 37 21 37 23 0 6 2 7 -35 -10z"/>
<path d="M9610 4801 c0 -5 9 -7 20 -4 11 3 20 7 20 9 0 2 -9 4 -20 4 -11 0
-20 -4 -20 -9z"/>
<path d="M9668 4793 c6 -2 18 -2 25 0 6 3 1 5 -13 5 -14 0 -19 -2 -12 -5z"/>
<path d="M9720 4780 c0 -5 7 -10 15 -10 8 0 15 5 15 10 0 6 -7 10 -15 10 -8 0
-15 -4 -15 -10z"/>
<path d="M9825 4720 c10 -11 20 -20 23 -20 3 0 -3 9 -13 20 -10 11 -20 20 -23
20 -3 0 3 -9 13 -20z"/>
<path d="M9806 4697 c2 -7 14 -19 27 -26 21 -13 21 -12 -2 13 -27 29 -33 32
-25 13z"/>
<path d="M9875 4670 c10 -11 20 -20 23 -20 3 0 -3 9 -13 20 -10 11 -20 20 -23
20 -3 0 3 -9 13 -20z"/>
<path d="M9860 4636 c0 -2 8 -10 18 -17 15 -13 16 -12 3 4 -13 16 -21 21 -21
13z"/>
<path d="M9930 4596 c0 -2 8 -10 18 -17 15 -13 16 -12 3 4 -13 16 -21 21 -21
13z"/>
<path d="M9975 4540 c10 -11 20 -20 23 -20 3 0 -3 9 -13 20 -10 11 -20 20 -23
20 -3 0 3 -9 13 -20z"/>
<path d="M10057 4399 c7 -7 15 -10 18 -7 3 3 -2 9 -12 12 -14 6 -15 5 -6 -5z"/>
<path d="M10175 4170 c10 -11 20 -20 22 -20 2 0 -2 9 -9 20 -7 11 -17 20 -22
20 -5 0 -1 -9 9 -20z"/>
<path d="M10388 4023 c7 -3 16 -2 19 1 4 3 -2 6 -13 5 -11 0 -14 -3 -6 -6z"/>
<path d="M10375 3935 c19 -9 24 -14 13 -15 -10 0 -18 -4 -18 -10 0 -5 12 -7
28 -4 15 3 38 1 52 -4 24 -9 24 -10 -15 -21 -54 -15 -75 -14 -81 4 -4 8 -10
15 -16 15 -5 0 0 -14 12 -30 15 -21 26 -28 33 -22 26 20 116 43 142 36 18 -5
26 -3 22 3 -4 6 -24 14 -44 17 -21 4 -62 16 -91 27 -60 22 -82 24 -37 4z"/>
<path d="M10563 3903 c9 -2 25 -2 35 0 9 3 1 5 -18 5 -19 0 -27 -2 -17 -5z"/>
<path d="M10575 3870 c27 -12 43 -12 25 0 -8 5 -22 9 -30 9 -10 0 -8 -3 5 -9z"/>
<path d="M10705 3850 c10 -11 20 -20 23 -20 3 0 -3 9 -13 20 -10 11 -20 20
-23 20 -3 0 3 -9 13 -20z"/>
<path d="M10868 3453 c6 -2 18 -2 25 0 6 3 1 5 -13 5 -14 0 -19 -2 -12 -5z"/>
<path d="M10950 3450 c-8 -5 -10 -10 -5 -10 6 0 17 5 25 10 8 5 11 10 5 10 -5
0 -17 -5 -25 -10z"/>
<path d="M11034 3314 c-18 -14 -18 -15 4 -4 12 6 22 13 22 15 0 8 -5 6 -26
-11z"/>
<path d="M10905 3215 c28 -15 56 -32 63 -37 9 -8 11 -7 7 3 -3 8 -22 22 -43
31 -64 29 -79 31 -27 3z"/>
<path d="M11118 3143 c6 -2 18 -2 25 0 6 3 1 5 -13 5 -14 0 -19 -2 -12 -5z"/>
<path d="M11078 3133 c7 -3 16 -2 19 1 4 3 -2 6 -13 5 -11 0 -14 -3 -6 -6z"/>
<path d="M8751 3094 c0 -11 3 -14 6 -6 3 7 2 16 -1 19 -3 4 -6 -2 -5 -13z"/>
<path d="M11055 3081 c5 -10 64 -26 78 -23 4 1 7 -2 7 -6 0 -10 50 -35 57 -29
2 3 -15 16 -39 29 -44 26 -113 45 -103 29z"/>
<path d="M8781 2945 c-1 -23 19 -99 24 -93 2 2 -2 28 -9 58 -8 30 -14 46 -15
35z"/>
<path d="M11208 2903 c7 -3 16 -2 19 1 4 3 -2 6 -13 5 -11 0 -14 -3 -6 -6z"/>
<path d="M11290 2877 c0 -2 15 -14 33 -27 20 -15 27 -17 18 -6 -13 16 -51 41
-51 33z"/>
<path d="M11376 2648 c4 -7 15 -25 25 -39 10 -14 16 -29 12 -33 -3 -3 1 -6 11
-6 14 0 11 8 -15 45 -30 42 -49 61 -33 33z"/>
<path d="M8941 2580 c18 -25 34 -47 36 -49 2 -2 3 0 3 6 0 5 -16 27 -36 49
l-36 39 33 -45z"/>
<path d="M11358 2563 c6 -2 18 -2 25 0 6 3 1 5 -13 5 -14 0 -19 -2 -12 -5z"/>
<path d="M11420 2099 c17 -18 60 -31 60 -19 0 4 -8 10 -17 13 -10 2 -27 8 -38
13 -18 7 -18 6 -5 -7z"/>
<path d="M11388 2083 c6 -2 18 -2 25 0 6 3 1 5 -13 5 -14 0 -19 -2 -12 -5z"/>
<path d="M11275 2065 c17 -8 37 -14 45 -14 8 0 0 6 -19 14 -42 19 -66 18 -26
0z"/>
<path d="M11600 2061 c14 -11 32 -21 40 -21 13 0 5 5 -52 35 -7 4 -2 -3 12
-14z"/>
<path d="M11509 2051 c13 -12 28 -21 34 -21 12 0 11 0 -28 24 l-30 17 24 -20z"/>
<path d="M11578 2043 c7 -3 16 -2 19 1 4 3 -2 6 -13 5 -11 0 -14 -3 -6 -6z"/>
<path d="M11368 2023 c7 -3 16 -2 19 1 4 3 -2 6 -13 5 -11 0 -14 -3 -6 -6z"/>
<path d="M12091 2027 c2 -1 22 -16 44 -32 l40 -30 -23 30 c-13 16 -33 30 -44
32 -12 2 -20 2 -17 0z"/>
<path d="M11560 2016 c0 -2 8 -10 18 -17 15 -13 16 -12 3 4 -13 16 -21 21 -21
13z"/>
<path d="M11780 2006 c0 -2 8 -10 18 -17 15 -13 16 -12 3 4 -13 16 -21 21 -21
13z"/>
<path d="M11730 1990 c0 -3 13 -12 29 -21 16 -10 57 -51 91 -93 35 -42 65 -76
68 -76 2 0 -1 6 -7 14 -6 8 -10 18 -9 23 2 6 -10 23 -27 39 -16 17 -46 50 -66
75 -23 28 -45 45 -58 45 -11 0 -21 -3 -21 -6z"/>
<path d="M11620 1965 c13 -14 26 -25 28 -25 3 0 -5 11 -18 25 -13 14 -26 25
-28 25 -3 0 5 -11 18 -25z"/>
<path d="M11550 1966 c0 -3 9 -10 20 -16 11 -6 20 -8 20 -6 0 3 -9 10 -20 16
-11 6 -20 8 -20 6z"/>
<path d="M11600 1936 c0 -3 9 -10 20 -16 11 -6 20 -8 20 -6 0 3 -9 10 -20 16
-11 6 -20 8 -20 6z"/>
<path d="M11669 1927 c15 -19 71 -61 71 -54 0 2 -19 19 -42 37 -24 19 -37 26
-29 17z"/>
<path d="M11895 1930 c3 -5 8 -10 11 -10 2 0 4 5 4 10 0 6 -5 10 -11 10 -5 0
-7 -4 -4 -10z"/>
<path d="M9271 1910 c0 -8 4 -22 9 -30 12 -18 12 -2 0 25 -6 13 -9 15 -9 5z"/>
<path d="M12060 1866 c0 -2 8 -10 18 -17 15 -13 16 -12 3 4 -13 16 -21 21 -21
13z"/>
<path d="M11565 1846 l-30 -13 37 1 c20 1 34 4 32 8 -2 3 4 9 13 11 15 4 15 5
-2 5 -11 1 -33 -5 -50 -12z"/>
<path d="M11990 1856 c0 -2 8 -10 18 -17 15 -13 16 -12 3 4 -13 16 -21 21 -21
13z"/>
<path d="M9315 1803 c16 -38 34 -63 20 -28 -4 11 -10 30 -12 43 -3 12 -9 22
-14 22 -5 0 -2 -17 6 -37z"/>
<path d="M11920 1836 c0 -2 8 -10 18 -17 15 -13 16 -12 3 4 -13 16 -21 21 -21
13z"/>
<path d="M12170 1836 c0 -2 8 -10 18 -17 15 -13 16 -12 3 4 -13 16 -21 21 -21
13z"/>
<path d="M12020 1816 c0 -2 8 -10 18 -17 15 -13 16 -12 3 4 -13 16 -21 21 -21
13z"/>
<path d="M12130 1796 c0 -3 9 -10 20 -16 11 -6 20 -8 20 -6 0 3 -9 10 -20 16
-11 6 -20 8 -20 6z"/>
<path d="M12220 1760 c0 -5 5 -10 11 -10 5 0 7 5 4 10 -3 6 -8 10 -11 10 -2 0
-4 -4 -4 -10z"/>
<path d="M12015 1696 c30 -26 85 -60 85 -53 0 4 -72 55 -100 70 -8 5 -1 -3 15
-17z"/>
<path d="M12188 1703 c6 -2 18 -2 25 0 6 3 1 5 -13 5 -14 0 -19 -2 -12 -5z"/>
<path d="M12248 1693 c7 -3 16 -2 19 1 4 3 -2 6 -13 5 -11 0 -14 -3 -6 -6z"/>
<path d="M9611 1644 c0 -11 3 -14 6 -6 3 7 2 16 -1 19 -3 4 -6 -2 -5 -13z"/>
<path d="M11970 1520 c8 -5 20 -10 25 -10 6 0 3 5 -5 10 -8 5 -19 10 -25 10
-5 0 -3 -5 5 -10z"/>
<path d="M9680 1516 c0 -2 8 -10 18 -17 15 -13 16 -12 3 4 -13 16 -21 21 -21
13z"/>
<path d="M9426 1459 c20 -55 28 -65 19 -19 -4 19 -13 41 -20 49 -11 11 -10 4
1 -30z"/>
<path d="M11498 1443 c7 -3 16 -2 19 1 4 3 -2 6 -13 5 -11 0 -14 -3 -6 -6z"/>
<path d="M12185 1400 c10 -11 20 -20 23 -20 3 0 -3 9 -13 20 -10 11 -20 20
-23 20 -3 0 3 -9 13 -20z"/>
<path d="M9601 1376 c-1 -35 -3 -37 -18 -25 -10 8 -3 -5 16 -28 36 -47 49 -56
29 -20 -7 12 -15 42 -19 67 l-6 45 -2 -39z"/>
<path d="M9540 1396 c0 -2 8 -10 18 -17 15 -13 16 -12 3 4 -13 16 -21 21 -21
13z"/>
<path d="M9645 1380 c10 -11 20 -20 23 -20 3 0 -3 9 -13 20 -10 11 -20 20 -23
20 -3 0 3 -9 13 -20z"/>
<path d="M12370 1397 c0 -3 12 -12 26 -22 15 -9 23 -12 20 -6 -7 11 -46 35
-46 28z"/>
<path d="M9700 1386 c0 -11 30 -66 36 -66 2 0 -3 15 -12 33 -19 36 -24 44 -24
33z"/>
<path d="M12120 1328 c41 -45 50 -53 50 -45 0 2 -21 23 -47 47 l-48 45 45 -47z"/>
<path d="M12055 1300 c27 -27 51 -50 54 -50 3 0 -17 23 -44 50 -27 28 -51 50
-54 50 -3 0 17 -22 44 -50z"/>
<path d="M9730 1301 c14 -12 32 -32 41 -43 10 -13 15 -15 15 -7 0 14 -46 65
-46 52 0 -3 -8 0 -18 8 -10 8 -7 3 8 -10z"/>
<path d="M9810 1295 c19 -19 36 -35 39 -35 3 0 -10 16 -29 35 -19 19 -36 35
-39 35 -3 0 10 -16 29 -35z"/>
<path d="M9595 1249 c17 -20 31 -35 33 -34 7 6 -12 32 -36 50 -27 19 -27 19 3
-16z"/>
<path d="M9860 1265 c0 -6 26 -35 57 -65 32 -30 49 -45 39 -32 -15 17 -16 22
-5 22 8 0 -1 9 -20 21 -19 11 -42 30 -52 42 -10 12 -18 17 -19 12z"/>
<path d="M11811 1243 c8 -13 18 -23 23 -23 6 0 26 -15 46 -32 l35 -33 -29 32
c-25 28 -26 32 -9 36 11 3 8 5 -11 6 -16 0 -38 9 -49 19 -19 17 -19 16 -6 -5z"/>
<path d="M9680 1246 c0 -2 8 -10 18 -17 15 -13 16 -12 3 4 -13 16 -21 21 -21
13z"/>
<path d="M12145 1220 c10 -11 20 -20 23 -20 3 0 -3 9 -13 20 -10 11 -20 20
-23 20 -3 0 3 -9 13 -20z"/>
<path d="M9790 1226 c0 -2 8 -10 18 -17 15 -13 16 -12 3 4 -13 16 -21 21 -21
13z"/>
<path d="M11975 1220 c28 -4 63 -13 79 -19 16 -6 31 -10 33 -7 8 8 -92 36
-126 35 -31 -1 -30 -2 14 -9z"/>
<path d="M9720 1216 c0 -2 8 -10 18 -17 15 -13 16 -12 3 4 -13 16 -21 21 -21
13z"/>
<path d="M9650 1195 c7 -9 15 -13 17 -11 7 7 -7 26 -19 26 -6 0 -6 -6 2 -15z"/>
<path d="M9833 1174 c9 -11 14 -24 10 -27 -3 -4 -1 -7 5 -7 6 0 25 -12 43 -27
32 -27 33 -27 14 -3 -10 14 -35 38 -54 55 -20 16 -28 20 -18 9z"/>
<path d="M12205 1170 c10 -11 20 -20 23 -20 3 0 -3 9 -13 20 -10 11 -20 20
-23 20 -3 0 3 -9 13 -20z"/>
<path d="M11505 1150 c3 -5 8 -10 11 -10 2 0 4 5 4 10 0 6 -5 10 -11 10 -5 0
-7 -4 -4 -10z"/>
<path d="M11807 1149 c7 -7 15 -10 18 -7 3 3 -2 9 -12 12 -14 6 -15 5 -6 -5z"/>
<path d="M9990 1136 c0 -2 8 -10 18 -17 15 -13 16 -12 3 4 -13 16 -21 21 -21
13z"/>
<path d="M12262 1120 c7 -11 17 -20 22 -20 5 0 1 9 -9 20 -10 11 -20 20 -22
20 -2 0 2 -9 9 -20z"/>
<path d="M11520 1096 c0 -2 7 -9 15 -16 9 -7 15 -8 15 -2 0 5 -7 12 -15 16 -8
3 -15 4 -15 2z"/>
<path d="M10455 1050 c9 -16 18 -30 21 -30 2 0 -2 14 -11 30 -9 17 -18 30 -21
30 -2 0 2 -13 11 -30z"/>
<path d="M11676 1045 c14 -19 28 -35 30 -35 2 0 -6 16 -17 35 -12 19 -25 35
-30 35 -6 0 2 -16 17 -35z"/>
<path d="M11750 1076 c0 -2 7 -7 16 -10 8 -3 12 -2 9 4 -6 10 -25 14 -25 6z"/>
<path d="M11830 1056 c0 -2 8 -10 18 -17 15 -13 16 -12 3 4 -13 16 -21 21 -21
13z"/>
<path d="M11552 1041 c-6 -4 2 -12 18 -20 41 -17 56 -10 21 10 -16 9 -33 14
-39 10z"/>
<path d="M11448 1013 c7 -3 16 -2 19 1 4 3 -2 6 -13 5 -11 0 -14 -3 -6 -6z"/>
<path d="M11905 989 c17 -19 41 -52 54 -72 12 -20 25 -37 27 -37 14 0 -62 108
-91 130 -11 8 -6 -1 10 -21z"/>
<path d="M11518 1003 c7 -3 16 -2 19 1 4 3 -2 6 -13 5 -11 0 -14 -3 -6 -6z"/>
<path d="M11660 996 c0 -2 7 -7 16 -10 8 -3 12 -2 9 4 -6 10 -25 14 -25 6z"/>
<path d="M11714 981 c16 -18 116 -75 116 -66 0 2 -20 16 -44 30 -24 14 -50 32
-56 40 -7 8 -17 15 -23 15 -5 0 -2 -8 7 -19z"/>
<path d="M11590 986 c0 -2 7 -7 16 -10 8 -3 12 -2 9 4 -6 10 -25 14 -25 6z"/>
<path d="M12070 935 c13 -14 26 -25 28 -25 3 0 -5 11 -18 25 -13 14 -26 25
-28 25 -3 0 5 -11 18 -25z"/>
<path d="M10820 946 c0 -2 8 -10 18 -17 15 -13 16 -12 3 4 -13 16 -21 21 -21
13z"/>
<path d="M11860 896 c0 -3 9 -10 20 -16 11 -6 20 -8 20 -6 0 3 -9 10 -20 16
-11 6 -20 8 -20 6z"/>
<path d="M11990 866 c0 -2 8 -10 18 -17 15 -13 16 -12 3 4 -13 16 -21 21 -21
13z"/>
<path d="M12044 806 c11 -9 24 -16 30 -16 12 0 7 5 -24 19 -24 11 -24 11 -6
-3z"/>
<path d="M11390 755 c19 -7 44 -14 55 -14 11 0 2 6 -20 14 -50 18 -82 18 -35
0z"/>
<path d="M11478 733 c7 -3 16 -2 19 1 4 3 -2 6 -13 5 -11 0 -14 -3 -6 -6z"/>
<path d="M11525 720 c11 -5 27 -9 35 -9 9 0 8 4 -5 9 -11 5 -27 9 -35 9 -9 0
-8 -4 5 -9z"/>
<path d="M11600 695 c34 -20 60 -20 34 0 -10 8 -28 14 -39 14 -18 0 -17 -1 5
-14z"/>
<path d="M11661 676 c2 -2 15 -9 29 -15 24 -11 24 -11 6 3 -16 13 -49 24 -35
12z"/>
</g>
</svg>
